<?xml version="1.0" encoding="UTF-8"?>
<svg id="Camada_1" data-name="Camada 1" xmlns="http://www.w3.org/2000/svg" viewBox="0 0 154.71 154.71">
  <defs>
    <style>
      .cls-1 {
        fill: #333;
      }

      .cls-2 {
        fill: #800020;
      }

      .cls-3 {
        fill: #036;
      }

      .cls-4 {
        fill: #00a859;
      }
    </style>
  </defs>
  <polygon class="cls-2" points="32.5 42.92 32.5 75.41 0 75.41 4.31 71.1 12.57 62.85 17.78 57.64 22.09 53.33 25.14 50.28 32.5 42.92"/>
  <path class="cls-3" d="M122.33,111.67l-3.17,3.17-17.77,17.77-4.31,4.31-5.21,5.21-5.13,5.14-3.12,3.12-4.31,4.31v-39.86h28.34c2.47,0,4.89-.25,7.21-.73,2.61-.54,5.12-1.36,7.48-2.44Z"/>
  <polygon class="cls-1" points="75.41 114.84 75.41 154.71 71.1 150.39 62.85 142.14 57.64 136.93 53.33 132.62 50.28 129.57 50.28 114.84 75.41 114.84"/>
  <path class="cls-3" d="M154.71,79.29l-4.31,4.31-8.26,8.25-2.13,2.13c2.04-4.48,3.17-9.46,3.17-14.7h11.53Z"/>
  <path class="cls-4" d="M154.7,75.41h-11.53c0-5.24-1.14-10.22-3.17-14.7l2.13,2.13,8.26,8.25,4.31,4.31Z"/>
  <path class="cls-4" d="M122.33,43.04c-4.48-2.04-9.46-3.17-14.7-3.17h-28.34V0l7.44,7.44,5.13,5.14,5.21,5.21,4.31,4.31,15.62,15.62,2.16,2.16,3.17,3.17Z"/>
  <polygon class="cls-2" points="75.41 0 75.41 39.86 35.55 39.86 37.71 37.71 39.86 35.55 50.28 25.14 53.33 22.09 57.64 17.78 62.85 12.57 71.1 4.31 75.41 0"/>
  <path class="cls-3" d="M125.4,79.29c0,9.82-7.96,17.77-17.77,17.77h-28.34v-17.77h46.11Z"/>
  <path class="cls-4" d="M125.4,75.41h-46.11v-17.77h28.34c9.82,0,17.77,7.96,17.77,17.77Z"/>
  <rect class="cls-2" x="50.28" y="57.64" width="25.14" height="17.77"/>
  <polygon class="cls-1" points="75.41 79.29 75.41 97.07 32.5 97.07 32.5 111.79 25.14 104.43 22.09 101.38 21.94 101.23 17.78 97.07 12.57 91.86 4.31 83.6 0 79.29 75.41 79.29"/>
</svg>